# xmcd CD database file
#
# Track frame offsets:
#	150
#	29412
#	51195
#	78959
#	108648
#	129767
#	155369
#	193622
#	218003
#	253086
#	272358
#
# Disc length: 4190 seconds
#
# Revision: 1
# Processed by: cddbd v1.5.1PL2 Copyright (c) Steve Scherf et al.
# Submitted via: CDex 1.51
#
DISCID=8d105c0b
DTITLE=Stan Kessler - Open
DYEAR=2003
DGENRE=Jazz
TTITLE0=It Could Happen To You
TTITLE1=Journey
TTITLE2=Cool Struttin'
TTITLE3=Close Your Eyes
TTITLE4=Infant Eyes
TTITLE5=Hear A Rhapsody
TTITLE6=Blue Man
TTITLE7=Sacred Cow
TTITLE8=Detour Ahead
TTITLE9=Squall Line
TTITLE10=Berlin November
EXTD=YEAR: 2003
EXTT0=
EXTT1=
EXTT2=
EXTT3=
EXTT4=
EXTT5=
EXTT6=
EXTT7=
EXTT8=
EXTT9=
EXTT10=
PLAYORDER=
